<?xml version="1.0" encoding="UTF-8"?>
<svg viewBox="0 0 24 24" version="1.1" xmlns="http://www.w3.org/2000/svg" xmlns:xlink="http://www.w3.org/1999/xlink">
    <title>card</title>
    <defs>
        <path d="M0,0 L24,0 L24,24 L0,24 L0,0 Z" id="path-1"></path>
    </defs>
    <g id="card" stroke="none" fill="none" xlink:href="#path-1" stroke-width="1.5">
        <path d="M8.43611479,3.75000001 C9.13570789,3.75 9.37624984,3.79645079 9.62314656,3.9284926 C9.81837113,4.03289985 9.96710015,4.18162887 10.0715074,4.37685344 C10.2035492,4.62375016 10.25,4.86429211 10.25,5.5638852 L10.25,10.25 L5.5638852,10.25 C4.86429211,10.25 4.62375016,10.2035492 4.37685344,10.0715074 C4.18162887,9.96710015 4.03289985,9.81837113 3.9284926,9.62314656 C3.79645079,9.37624984 3.75,9.13570789 3.75,8.4361148 L3.75,5.5638852 C3.75,4.86429211 3.79645079,4.62375016 3.9284926,4.37685344 C4.03289985,4.18162887 4.18162887,4.03289985 4.37685344,3.9284926 C4.62375016,3.79645079 4.86429211,3.75 5.5638852,3.75 Z" id="矩形-2" stroke="currentColor"></path>
        <path d="M10.25,13.75 L10.25,18.4361148 C10.25,19.1357079 10.2035492,19.3762498 10.0715074,19.6231466 C9.96710015,19.8183711 9.81837113,19.9671002 9.62314656,20.0715074 C9.37624984,20.2035492 9.13570789,20.25 8.4361148,20.25 L5.5638852,20.25 C4.86429211,20.25 4.62375016,20.2035492 4.37685344,20.0715074 C4.18162887,19.9671002 4.03289985,19.8183711 3.9284926,19.6231466 C3.79645079,19.3762498 3.75,19.1357079 3.75,18.4361148 L3.75,15.5638852 C3.75,14.8642921 3.79645079,14.6237502 3.9284926,14.3768534 C4.03289985,14.1816289 4.18162887,14.0328998 4.37685344,13.9284926 C4.62375016,13.7964508 4.86429211,13.75 5.5638852,13.75 Z" id="矩形-2" stroke="currentColor"></path>
        <path d="M19.5768143,3.90472823 L19.6231466,3.92849261 C19.8183711,4.03289985 19.9671002,4.18162887 20.0715074,4.37685344 C20.2035492,4.62375016 20.25,4.86429211 20.25,5.5638852 L20.25,8.4361148 C20.25,9.13570789 20.2035492,9.37624984 20.0715074,9.62314656 C19.9671002,9.81837113 19.8183711,9.96710015 19.6231466,10.0715074 C19.3762498,10.2035492 19.1357079,10.25 18.4361148,10.25 L13.75,10.25 L13.75,5.5638852 C13.75,4.86429211 13.7964508,4.62375016 13.9284926,4.37685344 C14.0328998,4.18162887 14.1816289,4.03289985 14.3768534,3.9284926 C14.6237502,3.79645079 14.8642921,3.75 15.5638852,3.75 L18.4361148,3.75 C19.0919833,3.75 19.3443889,3.79082589 19.5768143,3.90472823 Z" id="矩形-2" stroke="currentColor"></path>
        <path d="M19.5768143,13.9047282 L19.6231466,13.9284926 C19.8183711,14.0328998 19.9671002,14.1816289 20.0715074,14.3768534 C20.2035492,14.6237502 20.25,14.8642921 20.25,15.5638852 L20.25,18.4361148 C20.25,19.1357079 20.2035492,19.3762498 20.0715074,19.6231466 C19.9671002,19.8183711 19.8183711,19.9671002 19.6231466,20.0715074 C19.3762498,20.2035492 19.1357079,20.25 18.4361148,20.25 L15.5638852,20.25 C14.8642921,20.25 14.6237502,20.2035492 14.3768534,20.0715074 C14.1816289,19.9671002 14.0328998,19.8183711 13.9284926,19.6231466 C13.7964508,19.3762498 13.75,19.1357079 13.75,18.4361148 L13.75,13.75 L18.4361148,13.75 C19.0919833,13.75 19.3443889,13.7908259 19.5768143,13.9047282 Z" id="矩形-2" stroke="currentColor"></path>
    </g>
</svg>