<svg viewBox="0 0 24 24" fill="none" xmlns="http://www.w3.org/2000/svg"><g id="abfai-edit"><path id="fill1" d="M21 6.5L10.001 17.5L10 17.499L7.58594 19.9141C7.21088 20.289 6.70222 20.5 6.17188 20.5H2.5V16.8281C2.50009 16.2979 2.71107 15.789 3.08594 15.4141L16.5 2L21 6.5Z" fill="transparent"/><path id="stroke1" d="M10.0007 17.4995L5.50073 12.9995M10.0007 17.4995L7.58653 19.9139C7.21145 20.289 6.70272 20.4998 6.17226 20.4998H2.5L2.5006 16.8277C2.50068 16.2974 2.71139 15.7889 3.08638 15.4139L5.50073 12.9995M10.0007 17.4995L21.0007 6.49951L16.5007 1.99951L5.50073 12.9995" stroke-width="2" stroke="currentColor"/><g id="abfstroke2"><path d="M5 3 5.33234 3.66766 6 4 5.33234 4.33234 5 5 4.66766 4.33234 4 4 4.66766 3.66766 5 3ZM19 16.75 19.7 18.3 21.25 19 19.7 19.7 19 21.25 18.3 19.7 16.75 19 18.3 18.3 19 16.75Z" id="stroke2" stroke-width="2" stroke="currentColor"/></g></g></svg>