<?xml version="1.0" encoding="UTF-8"?>
<svg viewBox="0 0 24 24" version="1.1" xmlns="http://www.w3.org/2000/svg" xmlns:xlink="http://www.w3.org/1999/xlink">
    <title>list</title>
    <defs>
        <path d="M0,0 L24,0 L24,24 L0,24 L0,0 Z" id="path-1"></path>
    </defs>
    <g id="list" stroke="none" fill="none" xlink:href="#path-1">
        <path d="M6.5,3.51277704 L6.5,6.48722296 C6.5,6.49175412 6.50000339,6.49603198 6.5000113,6.5000113 C6.49603198,6.50000339 6.49175412,6.5 6.48722296,6.5 L3.51277704,6.5 C3.50824588,6.5 3.50396802,6.50000339 3.4999887,6.5000113 C3.49999661,6.49603205 3.5,6.49175416 3.5,6.48722296 L3.5,3.51277704 C3.5,3.50824584 3.49999661,3.50396795 3.4999887,3.4999887 C3.50396795,3.49999661 3.50824584,3.5 3.51277704,3.5 L6.48722296,3.5 C6.49175416,3.5 6.49603205,3.49999661 6.5000113,3.4999887 C6.50000339,3.50396802 6.5,3.50824588 6.5,3.51277704 Z" id="矩形-2" stroke="currentColor" stroke-width="1"></path>
        <path d="M6.5,10.512777 L6.5,13.487223 C6.5,13.4917541 6.50000339,13.496032 6.5000113,13.5000113 C6.49603198,13.5000034 6.49175412,13.5 6.48722296,13.5 L3.51277704,13.5 C3.50824588,13.5 3.50396802,13.5000034 3.4999887,13.5000113 C3.49999661,13.4960321 3.5,13.4917542 3.5,13.487223 L3.5,10.512777 C3.5,10.5082458 3.49999661,10.5039679 3.4999887,10.4999887 C3.50396795,10.4999966 3.50824584,10.5 3.51277704,10.5 L6.48722296,10.5 C6.49175416,10.5 6.49603205,10.4999966 6.5000113,10.4999887 C6.50000339,10.503968 6.5,10.5082459 6.5,10.512777 Z" id="矩形-2" stroke="currentColor" stroke-width="1"></path>
        <path d="M6.5,17.512777 L6.5,20.487223 C6.5,20.4917541 6.50000339,20.496032 6.5000113,20.5000113 C6.49603198,20.5000034 6.49175412,20.5 6.48722296,20.5 L3.51277704,20.5 C3.50824588,20.5 3.50396802,20.5000034 3.4999887,20.5000113 C3.49999661,20.4960321 3.5,20.4917542 3.5,20.487223 L3.5,17.512777 C3.5,17.5082458 3.49999661,17.5039679 3.4999887,17.4999887 C3.50396795,17.4999966 3.50824584,17.5 3.51277704,17.5 L6.48722296,17.5 C6.49175416,17.5 6.49603205,17.4999966 6.5000113,17.4999887 C6.50000339,17.503968 6.5,17.5082459 6.5,17.512777 Z" id="矩形-2" stroke="currentColor" stroke-width="1"></path>
        <path d="M10.512777,4 L20.487223,4 C20.6655267,4 20.730184,4.01856512 20.7953691,4.05342654 C20.8605543,4.08828796 20.911712,4.13944567 20.9465735,4.20463086 C20.9814349,4.26981604 21,4.33447329 21,4.51277704 L21,4.98722296 C21,5.16552671 20.9814349,5.23018396 20.9465735,5.29536914 C20.911712,5.36055433 20.8605543,5.41171204 20.7953691,5.44657346 C20.730184,5.48143488 20.6655267,5.5 20.487223,5.5 L10.512777,5.5 C10.3344733,5.5 10.269816,5.48143488 10.2046309,5.44657346 C10.1394457,5.41171204 10.088288,5.36055433 10.0534265,5.29536914 C10.0185651,5.23018396 10,5.16552671 10,4.98722296 L10,4.51277704 C10,4.33447329 10.0185651,4.26981604 10.0534265,4.20463086 C10.088288,4.13944567 10.1394457,4.08828796 10.2046309,4.05342654 C10.269816,4.01856512 10.3344733,4 10.512777,4 Z" id="矩形-3" fill="currentColor" fill-rule="evenodd"></path>
        <path d="M10.512777,9 L20.487223,9 C20.6655267,9 20.730184,9.01856512 20.7953691,9.05342654 C20.8605543,9.08828796 20.911712,9.13944567 20.9465735,9.20463086 C20.9814349,9.26981604 21,9.33447329 21,9.51277704 L21,9.98722296 C21,10.1655267 20.9814349,10.230184 20.9465735,10.2953691 C20.911712,10.3605543 20.8605543,10.411712 20.7953691,10.4465735 C20.730184,10.4814349 20.6655267,10.5 20.487223,10.5 L10.512777,10.5 C10.3344733,10.5 10.269816,10.4814349 10.2046309,10.4465735 C10.1394457,10.411712 10.088288,10.3605543 10.0534265,10.2953691 C10.0185651,10.230184 10,10.1655267 10,9.98722296 L10,9.51277704 C10,9.33447329 10.0185651,9.26981604 10.0534265,9.20463086 C10.088288,9.13944567 10.1394457,9.08828796 10.2046309,9.05342654 C10.269816,9.01856512 10.3344733,9 10.512777,9 Z" id="矩形-3" fill="currentColor" fill-rule="evenodd"></path>
        <path d="M10.512777,14 L20.487223,14 C20.6655267,14 20.730184,14.0185651 20.7953691,14.0534265 C20.8605543,14.088288 20.911712,14.1394457 20.9465735,14.2046309 C20.9814349,14.269816 21,14.3344733 21,14.512777 L21,14.987223 C21,15.1655267 20.9814349,15.230184 20.9465735,15.2953691 C20.911712,15.3605543 20.8605543,15.411712 20.7953691,15.4465735 C20.730184,15.4814349 20.6655267,15.5 20.487223,15.5 L10.512777,15.5 C10.3344733,15.5 10.269816,15.4814349 10.2046309,15.4465735 C10.1394457,15.411712 10.088288,15.3605543 10.0534265,15.2953691 C10.0185651,15.230184 10,15.1655267 10,14.987223 L10,14.512777 C10,14.3344733 10.0185651,14.269816 10.0534265,14.2046309 C10.088288,14.1394457 10.1394457,14.088288 10.2046309,14.0534265 C10.269816,14.0185651 10.3344733,14 10.512777,14 Z" id="矩形-3" fill="currentColor" fill-rule="evenodd"></path>
        <path d="M10.512777,19 L20.487223,19 C20.6655267,19 20.730184,19.0185651 20.7953691,19.0534265 C20.8605543,19.088288 20.911712,19.1394457 20.9465735,19.2046309 C20.9814349,19.269816 21,19.3344733 21,19.512777 L21,19.987223 C21,20.1655267 20.9814349,20.230184 20.9465735,20.2953691 C20.911712,20.3605543 20.8605543,20.411712 20.7953691,20.4465735 C20.730184,20.4814349 20.6655267,20.5 20.487223,20.5 L10.512777,20.5 C10.3344733,20.5 10.269816,20.4814349 10.2046309,20.4465735 C10.1394457,20.411712 10.088288,20.3605543 10.0534265,20.2953691 C10.0185651,20.230184 10,20.1655267 10,19.987223 L10,19.512777 C10,19.3344733 10.0185651,19.269816 10.0534265,19.2046309 C10.088288,19.1394457 10.1394457,19.088288 10.2046309,19.0534265 C10.269816,19.0185651 10.3344733,19 10.512777,19 Z" id="矩形-3" fill="currentColor" fill-rule="evenodd"></path>
    </g>
</svg>