<?xml version="1.0" encoding="UTF-8"?>
<svg viewBox="0 0 25 24" version="1.1" xmlns="http://www.w3.org/2000/svg" xmlns:xlink="http://www.w3.org/1999/xlink">
    <title>Logo</title>
    <defs>
        <path d="M0,0 L25,0 L25,24 L0,24 L0,0 Z" id="path-1"></path>
    </defs>
    <g id="Logo" stroke="none" fill="none" xlink:href="#path-1">
        <path d="M1.9819426,3 L4.4180574,3 C4.86381677,3 5.02545989,3.04641281 5.18842285,3.13356635 C5.35138581,3.2207199 5.4792801,3.34861419 5.56643365,3.51157715 C5.65358719,3.67454011 5.7,3.83618323 5.7,4.2819426 L5.7,19.9180574 C5.7,20.3638168 5.65358719,20.5254599 5.56643365,20.6884229 C5.4792801,20.8513858 5.35138581,20.9792801 5.18842285,21.0664336 C5.02545989,21.1535872 4.86381677,21.2 4.4180574,21.2 L3.2,21.2 C1.81928813,21.2 0.7,20.0807119 0.7,18.7 L0.7,4.2819426 C0.7,3.83618323 0.746412806,3.67454011 0.833566352,3.51157715 C0.920719898,3.34861419 1.04861419,3.2207199 1.21157715,3.13356635 C1.37454011,3.04641281 1.53618323,3 1.9819426,3 Z" id="矩形-2" fill="#FFFFFF" fill-rule="evenodd"></path>
        <circle id="椭圆形-4" fill="#FFFFFF" fill-rule="evenodd" cx="15" cy="12" r="9.5"></circle>
        <path d="M5.5638852,11 L8.4361148,11 C9.32763354,11 9.65091978,11.0928256 9.9768457,11.2671327 C10.3027716,11.4414398 10.5585602,11.6972284 10.7328673,12.0231543 C10.9071744,12.3490802 11,12.6723665 11,13.5638852 L11,18.6361148 C11,19.5276335 10.9071744,19.8509198 10.7328673,20.1768457 C10.5585602,20.5027716 10.3027716,20.7585602 9.9768457,20.9328673 C9.65091978,21.1071744 9.32763354,21.2 8.4361148,21.2 L5.5638852,21.2 C4.67236646,21.2 4.34908022,21.1071744 4.0231543,20.9328673 C3.69722837,20.7585602 3.4414398,20.5027716 3.2671327,20.1768457 C3.09282561,19.8509198 3,19.5276335 3,18.6361148 L3,13.5638852 C3,12.6723665 3.09282561,12.3490802 3.2671327,12.0231543 C3.4414398,11.6972284 3.69722837,11.4414398 4.0231543,11.2671327 C4.34908022,11.0928256 4.67236646,11 5.5638852,11 Z" id="矩形-3" fill="#FFFFFF" fill-rule="evenodd"></path>
        <path d="M2,5 L2,18 C2,19.1045695 2.8954305,20 4,20 L4.5,20 L4.5,20 L9,20 C9.55228475,20 10,19.5522847 10,19 C10,18.4477153 9.55228475,18 9,18 L5.28571429,18 C4.73342954,18 4.28571429,17.5522847 4.28571429,17 L4.28571429,5 C4.28571429,4.44771525 3.83799904,4 3.28571429,4 L3,4 C2.44771525,4 2,4.44771525 2,5 Z" id="路径" stroke="#0A0A0A" stroke-width="1"></path>
        <path d="M11.0717823,18.9707721 C12.2321109,19.6260551 13.5723857,20 15,20 C17.8143634,20 20.2892975,18.5467305 21.7153063,16.3496877 C22.5279932,15.0975861 23,13.6039146 23,12 C23,7.581722 19.418278,4 15,4 C10.581722,4 7,7.581722 7,12 C7,13.3092186 7.31449238,14.5449836 7.87205284,15.6358706" id="路径" stroke="#0A0A0A" stroke-width="1" stroke-linecap="round" transform="translate(15, 12) rotate(-4) translate(-15, -12)"></path>
        <path d="M12.1848346,17.2999184 C13.0243547,17.746777 13.9826056,18 15,18 C18.3137085,18 21,15.3137085 21,12 C21,8.6862915 18.3137085,6 15,6 C11.6862915,6 9,8.6862915 9,12" id="路径" stroke="#0A0A0A" stroke-width="1" stroke-linecap="round" transform="translate(15, 12) rotate(-7) translate(-15, -12)"></path>
        <circle id="椭圆形-3" fill="#0A0A0A" fill-rule="evenodd" cx="12.75" cy="11.25" r="1"></circle>
        <circle id="椭圆形-3" fill="#0A0A0A" fill-rule="evenodd" cx="16.75" cy="11.25" r="1"></circle>
        <circle id="椭圆形-3" fill="#AEAFAC" fill-rule="evenodd" cx="11.25" cy="12.75" r="1"></circle>
        <circle id="椭圆形-3" fill="#AEAFAC" fill-rule="evenodd" cx="18.25" cy="12.75" r="1"></circle>
        <path d="M13.8,12.2 C13.8,12.7522847 14.2029437,13.2 14.7,13.2 C15.1970563,13.2 15.6,12.7522847 15.6,12.2" id="路径" stroke="#0A0A0A" stroke-width="0.5" stroke-linecap="round"></path>
    </g>
</svg>