<?xml version="1.0" standalone="no"?><!DOCTYPE svg PUBLIC "-//W3C//DTD SVG 1.1//EN" "http://www.w3.org/Graphics/SVG/1.1/DTD/svg11.dtd"><svg t="1765895520427" class="icon" viewBox="0 0 1024 1024" version="1.1" xmlns="http://www.w3.org/2000/svg" p-id="13473" width="200" height="200" xmlns:xlink="http://www.w3.org/1999/xlink"><path d="M127.956992 359.866368L607.08864 784.574464" fill="#D8D8D8" p-id="13474"></path><path d="M908.918784 612.691968l-79.157248-70.166528C827.445248 352.516096 672.722944 199.18848 482.162688 199.18848c-81.252352 0-155.981824 27.889664-215.171072 74.5984l-30.918656-27.406336c-10.094592-8.945664-25.524224-8.015872-34.471936 2.074624-8.945664 10.092544-8.015872 25.526272 2.076672 34.471936l26.97216 23.9104-0.120832 0.124928 20.924416 18.548736c12.61568 11.18208 13.776896 30.472192 2.594816 43.08992a30.457856 30.457856 0 0 1-33.001472 8.523776l-60.696576-53.803008c-20.18304-17.88928-51.0464-16.033792-68.941824 4.151296-17.891328 20.185088-16.031744 51.050496 4.151296 68.941824l54.267904 48.103424c-9.955328 32.34816-15.316992 66.709504-15.316992 102.324224 0 192.004096 155.648 347.652096 347.652096 347.652096 104.787968 0 198.731776-46.368768 262.463488-119.699456l38.391808 34.029568a48.652288 48.652288 0 0 0 32.376832 12.292096c13.488128 0 26.916864-5.558272 36.564992-16.441344 17.891328-20.18304 16.031744-51.050496-4.151296-68.941824l-86.827008-76.961792c-10.797056-13.66016-10.627072-33.4848 1.323008-46.968832 11.4176-12.88192 29.87008-15.7696 44.447744-8.087552l61.667328 54.66112a30.39232 30.39232 0 0 0 20.236288 7.682048c8.429568 0 16.820224-3.47136 22.853632-10.276864 11.184128-12.617728 10.022912-31.905792-2.59072-43.08992z" fill="#F4F4F4" p-id="13475"></path><path d="M249.929728 130.322432m-11.511808 0a11.511808 11.511808 0 1 0 23.023616 0 11.511808 11.511808 0 1 0-23.023616 0Z" fill="#D8D8D8" p-id="13476"></path><path d="M688.912384 146.04288c-9.035776 0-16.386048-7.35232-16.386048-16.390144s7.350272-16.388096 16.386048-16.388096c9.037824 0 16.390144 7.35232 16.390144 16.388096s-7.35232 16.390144-16.390144 16.390144z m0-28.684288a12.306432 12.306432 0 0 0-12.290048 12.292096 12.306432 12.306432 0 0 0 12.290048 12.294144 12.30848 12.30848 0 0 0 12.294144-12.294144 12.30848 12.30848 0 0 0-12.294144-12.292096z" fill="#D8D8D8" p-id="13477"></path><path d="M304.9984 735.356928h-10.24l0.012288-34.093056c0.014336-27.858944 0.03072-55.71584-0.045056-83.574784l10.24-0.028672c0.075776 27.869184 0.059392 55.738368 0.045056 83.607552l-0.012288 34.08896zM307.116032 607.971328l-9.715712-3.23584 20.262912-60.801024c9.244672-27.731968 18.487296-55.465984 27.721728-83.202048l9.715712 3.233792c-9.234432 27.736064-18.477056 55.472128-27.723776 83.206144l-20.260864 60.798976z" fill="#999999" p-id="13478"></path><path d="M294.74816 618.15808c-0.444416-4.665344 1.001472-8.753152 2.277376-12.35968l0.395264-1.122304 9.674752 3.356672-0.415744 1.179648c-1.011712 2.859008-1.96608 5.562368-1.736704 7.979008l-10.194944 0.966656zM311.048192 753.842176c-3.753984 0-8.413184-0.339968-11.993088-3.944448-4.395008-4.059136-4.337664-9.904128-4.3008-13.785088l0.006144-0.780288 10.24 0.047104-0.006144 0.82944c-0.022528 2.445312-0.049152 5.218304 1.036288 6.191104l0.262144 0.251904c0.960512 0.995328 3.618816 0.960512 5.963776 0.940032l1.1264-0.01024c120.44288-0.008192 240.879616-0.016384 361.320448 0.008192 2.015232-0.077824 3.362816-0.36864 3.80928-0.862208l0.395264-0.391168c0.270336-0.237568 0.899072-1.079296 0.948224-3.7376-0.02048-24.875008-0.018432-49.846272-0.016384-74.819584v-42.807296c-0.008192-0.759808 0.01024-1.579008 0.028672-2.39616 0.043008-1.90464 0.086016-3.704832-0.303104-5.148672-6.631424-19.871744-13.254656-39.749632-19.87584-59.625472-9.981952-29.960192-19.961856-59.920384-29.980672-89.86624-0.58368-1.847296-2.205696-3.145728-3.821568-3.080192l-260.978688-0.004096c-0.62464 0.004096-1.286144-0.002048-1.953792-0.012288-1.97632-0.03072-3.837952-0.053248-5.33504 0.36864-1.079296 0.27648-2.082816 1.40288-2.500608 2.707456l-9.750528-3.127296c1.513472-4.716544 5.19168-8.3456 9.601024-9.469952 2.80576-0.790528 5.632-0.755712 8.122368-0.7168 0.59392 0.008192 1.18784 0.016384 1.773568 0.01024l260.845568 0.006144c6.105088-0.229376 11.782144 3.964928 13.733888 10.151936 9.992192 29.865984 19.974144 59.830272 29.958144 89.796608 6.633472 19.9168 13.268992 39.831552 19.914752 59.744256l0.067584 0.212992c0.841728 2.951168 0.776192 5.7856 0.720896 8.288256-0.016384 0.702464-0.034816 1.404928-0.026624 2.103296v42.86464c-0.002048 24.971264-0.004096 49.942528 0.016384 74.907648-0.088064 4.909056-1.497088 8.62208-4.192256 11.128832-3.567616 3.739648-8.771584 3.930112-11.016192 4.012032-120.623104-0.022528-241.061888-0.012288-361.494528-0.004096l-1.021952 0.008192c-0.425984 0.006144-0.868352 0.01024-1.323008 0.01024z" fill="#999999" p-id="13479"></path><path d="M492.208128 680.316928a54.757376 54.757376 0 0 1-32.34816-10.610688c-13.43488-9.691136-21.897216-25.253888-22.59968-41.603072-0.059392-1.409024-0.182272-4.33152-1.175552-5.142528a4.79232 4.79232 0 0 1-0.462848-0.425984c-0.442368-0.462848-1.708032-0.718848-3.764224-0.763904-37.249024 0.018432-74.612736 0.01024-111.968256 0.002048a5.12 5.12 0 0 1 0-10.24c37.35552 0.008192 74.72128 0.014336 112.0768 0 3.446784 0.073728 7.657472 0.5632 10.82368 3.688448 4.333568 3.723264 4.571136 9.381888 4.70016 12.447744 0.559104 13.039616 7.610368 25.97888 18.397184 33.759232 8.183808 6.017024 18.640896 9.125888 28.768256 8.579072 11.952128-0.520192 23.728128-6.197248 31.561728-15.194112 6.842368-7.714816 10.909696-17.89952 11.19232-27.983872 0.120832-2.369536 0.38912-7.581696 4.163584-11.14112 3.278848-3.557376 7.948288-4.077568 11.208704-4.153344 25.024512 0.008192 49.93024 0.002048 74.83392 0.002048l37.349376-0.004096a5.12 5.12 0 1 1 0 10.24l-37.349376 0.004096c-24.905728 0-49.809408 0.004096-74.715136-0.004096-2.555904 0.06144-3.495936 0.512-3.815424 0.878592-0.14336 0.165888-0.299008 0.323584-0.464896 0.468992-0.804864 0.714752-0.935936 3.2768-0.978944 4.118528-0.350208 12.511232-5.228544 24.748032-13.73184 34.336768a54.777856 54.777856 0 0 1-38.750208 18.661376c-0.985088 0.053248-1.970176 0.079872-2.951168 0.079872z" fill="#999999" p-id="13480"></path><path d="M888.832 329.728s-8.192 27.648-24.576 31.744c0 0 20.48 8.192 24.576 28.672 0 0 3.072-29.696 26.624-30.208 0 0-25.6-13.824-26.624-30.208zM914.432 284.465152s-3.072 10.366976-9.216 11.902976c0 0 7.68 3.072 9.216 10.752 0 0 1.150976-11.134976 9.979904-11.32544 0-0.002048-9.59488-5.185536-9.979904-11.329536z" fill="#D9D9D9" p-id="13481"></path><path d="M413.935616 70.559744s-6.275072 21.17632-18.823168 24.313856c0 0 15.685632 6.275072 18.823168 21.960704 0 0 2.351104-22.745088 20.391936-23.136256 0-0.002048-19.607552-10.590208-20.391936-23.138304z" fill="#D9D9D9" p-id="13482"></path><path d="M598.663168 253.25568l51.52768 23.072768 84.21376-66.525184-64.217088 69.599232 64.217088 21.149696 35.375104-129.202176z" fill="#999999" p-id="13483"></path><path d="M669.802496 295.170048l-3.46112 39.221248 21.917696-28.839936z" fill="#999999" p-id="13484"></path><path d="M459.751424 498.685952c-13.033472 7.348224-22.628352 11.02848-22.72256 11.065344l2.183168 5.742592c0.405504-0.1536 10.088448-3.862528 23.558144-11.456512l-3.018752-5.351424zM488.480768 479.31392a203.474944 203.474944 0 0 1-18.806784 13.43488 3.072 3.072 0 1 0 3.289088 5.189632 209.993728 209.993728 0 0 0 19.376128-13.842432 3.072 3.072 0 1 0-3.858432-4.78208zM522.0352 447.73376a3.072 3.072 0 0 0-4.276224 0.765952c-4.943872 7.104512-10.903552 14.041088-17.711104 20.617216a3.072 3.072 0 0 0 4.268032 4.419584c7.09632-6.854656 13.316096-14.096384 18.487296-21.528576a3.067904 3.067904 0 0 0-0.768-4.274176zM536.08448 381.308928a3.072 3.072 0 1 0 6.10304-0.69632c-1.562624-13.697024-6.42048-24.203264-14.436352-31.232a3.074048 3.074048 0 0 0-4.050944 4.620288c6.834176 5.9904 10.999808 15.177728 12.384256 27.308032zM486.244352 350.63808c0.43008 0 0.866304-0.090112 1.284096-0.282624 8.134656-3.751936 17.287168-4.614144 25.110528-2.363392a3.072 3.072 0 0 0 1.695744-5.906432c-9.216-2.646016-19.922944-1.665024-29.37856 2.689024a3.072 3.072 0 0 0 1.288192 5.863424zM469.372928 381.784064a24.832 24.832 0 0 1-0.49152-7.647232l2.871296-9.539584a29.065216 29.065216 0 0 1 4.835328-6.610944 3.072 3.072 0 0 0-4.399104-4.288512c-8.0896 8.300544-11.218944 18.755584-8.808448 29.437952a3.072 3.072 0 0 0 5.992448-1.35168zM470.327296 392.54016a3.072 3.072 0 0 0-0.821248 4.265984c3.188736 4.7104 7.491584 9.345024 12.78976 13.7728a98.670592 98.670592 0 0 0 5.8368 4.521984 3.072 3.072 0 0 0 3.571712-5.001216 91.748352 91.748352 0 0 1-5.470208-4.237312c-4.857856-4.059136-8.773632-8.265728-11.640832-12.500992a3.076096 3.076096 0 0 0-4.265984-0.821248zM518.68672 427.835392a3.072 3.072 0 0 0 0.432128-6.11328c-6.019072-0.866304-12.05248-2.824192-17.93024-5.822464a3.072 3.072 0 0 0-2.791424 5.474304c6.479872 3.303424 13.156352 5.46816 19.84512 6.43072 0.149504 0.02048 0.29696 0.03072 0.444416 0.03072zM541.841408 420.032512c-1.230848 0.346112-2.461696 0.64512-3.694592 0.905216a101.53984 101.53984 0 0 0 4.27008-22.155264 3.072 3.072 0 0 0-2.824192-3.301376 3.090432 3.090432 0 0 0-3.299328 2.824192 95.793152 95.793152 0 0 1-4.92544 23.648256c-1.185792 0.104448-2.367488 0.172032-3.54304 0.200704-1.695744 0.04096-3.037184 1.36192-2.998272 3.057664 0.043008 1.671168 1.409024 2.822144 3.069952 2.822144h0.075776c0.366592 0 0.73728-0.032768 1.103872-0.04096a102.709248 102.709248 0 0 1-4.030464 8.58112 3.072 3.072 0 0 0 5.431296 2.869248 109.047808 109.047808 0 0 0 5.419008-12.007424 60.50816 60.50816 0 0 0 7.614464-1.632256c1.634304-0.462848 2.584576-1.994752 2.121728-3.627008a3.084288 3.084288 0 0 0-3.790848-2.144256zM577.830912 398.80704c-7.088128 6.299648-14.21312 11.399168-21.182464 15.161344a3.072 3.072 0 1 0 2.920448 5.40672c7.38304-3.987456 14.8992-9.361408 22.341632-15.976448a3.072 3.072 0 1 0-4.079616-4.591616zM609.226752 368.26112a3.065856 3.065856 0 0 0-4.302848 0.598016c-5.214208 6.895616-10.520576 13.242368-15.771648 18.864128a3.072 3.072 0 0 0 4.487168 4.194304c5.398528-5.777408 10.84416-12.288 16.183296-19.3536a3.067904 3.067904 0 0 0-0.595968-4.302848zM634.589184 328.583168a3.072 3.072 0 0 0-4.190208 1.153024 391.348224 391.348224 0 0 1-15.480832 25.088 3.072 3.072 0 1 0 5.095424 3.428352 399.290368 399.290368 0 0 0 15.72864-25.485312 3.065856 3.065856 0 0 0-1.153024-4.184064zM653.881344 289.45408a3.072 3.072 0 0 0-4.02432 1.6384c-0.038912 0.09216-4.00384 9.476096-10.98752 23.007232a3.072 3.072 0 1 0 5.462016 2.816c7.104512-13.764608 11.02848-23.054336 11.19232-23.441408a3.072 3.072 0 0 0-1.642496-4.020224z" fill="#999999" p-id="13485"></path></svg>