<?xml version="1.0" encoding="UTF-8"?>
<svg viewBox="0 0 24 24" version="1.1" xmlns="http://www.w3.org/2000/svg" xmlns:xlink="http://www.w3.org/1999/xlink">
    <title>project</title>
    <g id="project" stroke="none" fill="none">
        <path d="M15.1074161,4.87366677 C15.1770834,4.89348136 15.2025659,4.90160474 15.2145669,4.90675342 C15.2197156,4.91875446 15.227839,4.94423696 15.2476536,5.01390426 L17.7675658,13.8738129 L9.05719962,11.2035123 C8.98919549,11.1826646 8.96423018,11.1741624 8.95243922,11.1688811 C8.94715791,11.1570902 8.93865574,11.1321248 8.917808,11.0641207 L6.24750741,2.35375456 Z" id="矩形-2" stroke="#0A0A0A" stroke-width="1" fill="#0A0A0A" fill-rule="evenodd" transform="translate(12, 8.1213) rotate(-45) translate(-12, -8.1213)"></path>
        <path d="M16.973609,15.7705511 L17.3993969,17.2676038 C17.4296143,17.3738472 17.3679832,17.4844705 17.2617399,17.5146879 C17.2246409,17.5252395 17.1852823,17.5248386 17.148406,17.5135336 L9.33469359,15.1181165 C9.17603349,15.0694767 9.05184365,14.9452869 9.00320389,14.7866268 L6.60778672,6.97291439 C6.57541158,6.86730857 6.63477678,6.75545291 6.7403826,6.72307778 C6.77725893,6.71177275 6.81661755,6.71137189 6.8537165,6.72192347 L8.41667292,7.16645548 C8.44962538,7.17582773 8.47961789,7.19350761 8.50377516,7.2178002" id="路径" stroke="#0A0A0A" stroke-width="1.5" transform="translate(12, 12.1213) rotate(-45) translate(-12, -12.1213)"></path>
        <path d="M16.973609,19.7705511 L17.3993969,21.2676038 C17.4296143,21.3738472 17.3679832,21.4844705 17.2617399,21.5146879 C17.2246409,21.5252395 17.1852823,21.5248386 17.148406,21.5135336 L9.33469359,19.1181165 C9.17603349,19.0694767 9.05184365,18.9452869 9.00320389,18.7866268 L8.77098509,18.0291425 L6.60778672,10.9729144 C6.57541158,10.8673086 6.63477678,10.7554529 6.7403826,10.7230778 C6.77725893,10.7117728 6.81661755,10.7113719 6.8537165,10.7219235 L8.41667292,11.1664555 C8.44962538,11.1758277 8.47961789,11.1935076 8.50377516,11.2178002" id="路径" stroke="#0A0A0A" stroke-width="1.5" transform="translate(12, 16.1213) rotate(-45) translate(-12, -16.1213)"></path>
    </g>
</svg>